<svg width="52" height="52" viewBox="0 0 52 52" fill="none" xmlns="http://www.w3.org/2000/svg">
<path opacity="0.1" fill-rule="evenodd" clip-rule="evenodd" d="M26 51.2026C39.8071 51.2026 51 40.0098 51 26.2026C51 12.3955 39.8071 1.20264 26 1.20264C12.1929 1.20264 1 12.3955 1 26.2026C1 40.0098 12.1929 51.2026 26 51.2026Z" stroke="#E0E3E7" stroke-width="1.5"/>
<path d="M20.2623 21.1557C21.4328 21.1557 22.3817 20.2068 22.3817 19.0363C22.3817 17.8659 21.4328 16.917 20.2623 16.917C19.0918 16.917 18.143 17.8659 18.143 19.0363C18.143 20.2068 19.0918 21.1557 20.2623 21.1557Z" fill="#E0E3E7"/>
<path d="M22.0283 22.5713H18.4961C18.3011 22.5713 18.1429 22.7295 18.1429 22.9245V33.5213C18.1429 33.7163 18.3011 33.8745 18.4961 33.8745H22.0283C22.2233 33.8745 22.3816 33.7163 22.3816 33.5213V22.9245C22.3816 22.7295 22.2233 22.5713 22.0283 22.5713Z" fill="#E0E3E7"/>
<path d="M32.5543 21.9834C31.0446 21.4663 29.1563 21.9205 28.0239 22.7351C27.985 22.5832 27.8465 22.4702 27.6819 22.4702H24.1497C23.9547 22.4702 23.7964 22.6284 23.7964 22.8234V33.4202C23.7964 33.6152 23.9547 33.7734 24.1497 33.7734H27.6819C27.8769 33.7734 28.0352 33.6152 28.0352 33.4202V25.8046C28.606 25.3129 29.3414 25.1561 29.9433 25.4118C30.5268 25.6584 30.861 26.2603 30.861 27.0621V33.4202C30.861 33.6152 31.0192 33.7734 31.2142 33.7734H34.7465C34.9414 33.7734 35.0997 33.6152 35.0997 33.4202V26.3507C35.0594 23.4479 33.6938 22.3734 32.5543 21.9834Z" fill="#E0E3E7"/>
</svg>
