<svg width="9" height="18" viewBox="0 0 9 18" fill="none" xmlns="http://www.w3.org/2000/svg">
<path d="M8.60584 2.07251C8.68102 1.99296 8.7398 1.89937 8.77881 1.79709C8.81782 1.69482 8.83631 1.58586 8.83321 1.47644C8.83012 1.36703 8.8055 1.25929 8.76077 1.15938C8.71604 1.05948 8.65207 0.969363 8.57251 0.894181C8.49295 0.818999 8.39936 0.760224 8.29708 0.721211C8.19481 0.682198 8.08585 0.663711 7.97644 0.666807C7.86702 0.669902 7.75928 0.694519 7.65937 0.739251C7.55947 0.783983 7.46935 0.847955 7.39417 0.927514L0.310839 8.42751C0.164559 8.58224 0.0830536 8.78709 0.0830536 9.00001C0.0830536 9.21294 0.164559 9.41779 0.310839 9.57251L7.39417 17.0733C7.46886 17.1546 7.55895 17.2203 7.65923 17.2665C7.7595 17.3127 7.86795 17.3385 7.97828 17.3424C8.08861 17.3463 8.19861 17.3283 8.30191 17.2893C8.40521 17.2504 8.49974 17.1913 8.58 17.1155C8.66027 17.0397 8.72468 16.9487 8.76948 16.8478C8.81429 16.7469 8.8386 16.6381 8.841 16.5277C8.84341 16.4174 8.82386 16.3076 8.78349 16.2049C8.74312 16.1021 8.68273 16.0084 8.60584 15.9292L2.06251 9.00001L8.60584 2.07251Z" fill="white"/>
</svg>
