<svg width="48" height="64" viewBox="0 0 48 64" fill="none" xmlns="http://www.w3.org/2000/svg">
<path d="M10 34.6708C10 41.9242 14.486 47.8252 20 47.8252H38V42.5635H20C16.691 42.5635 14 39.0236 14 34.6708V32.0399H38L44 8.36198H4V13.6238H10V34.6708Z" fill="#E0E3E7"/>
<path d="M18 58.3488C19.1046 58.3488 20 57.1709 20 55.7179C20 54.2649 19.1046 53.087 18 53.087C16.8954 53.087 16 54.2649 16 55.7179C16 57.1709 16.8954 58.3488 18 58.3488Z" fill="#E0E3E7"/>
<path d="M30 58.3488C31.1046 58.3488 32 57.1709 32 55.7179C32 54.2649 31.1046 53.087 30 53.087C28.8954 53.087 28 54.2649 28 55.7179C28 57.1709 28.8954 58.3488 30 58.3488Z" fill="#E0E3E7"/>
</svg>
