<svg width="9" height="9" viewBox="0 0 9 9" fill="none" xmlns="http://www.w3.org/2000/svg">
<path d="M8.4375 0.568737C8.37968 0.510797 8.311 0.46483 8.23539 0.433467C8.15978 0.402103 8.07873 0.38596 7.99688 0.38596C7.91502 0.38596 7.83397 0.402103 7.75836 0.433467C7.68275 0.46483 7.61407 0.510797 7.55625 0.568737L4.5 3.61874L1.44375 0.562487C1.38589 0.504623 1.31719 0.458723 1.24159 0.427408C1.16599 0.396092 1.08496 0.379974 1.00313 0.379974C0.921296 0.379974 0.840265 0.396092 0.764663 0.427408C0.68906 0.458723 0.620366 0.504623 0.562502 0.562487C0.504639 0.620351 0.458739 0.689045 0.427423 0.764648C0.396107 0.84025 0.37999 0.921281 0.37999 1.00311C0.37999 1.08494 0.396107 1.16597 0.427423 1.24158C0.458739 1.31718 0.504639 1.38587 0.562502 1.44374L3.61875 4.49999L0.562502 7.55624C0.504639 7.6141 0.458739 7.68279 0.427423 7.7584C0.396107 7.834 0.37999 7.91503 0.37999 7.99686C0.37999 8.07869 0.396107 8.15972 0.427423 8.23533C0.458739 8.31093 0.504639 8.37962 0.562502 8.43749C0.620366 8.49535 0.68906 8.54125 0.764663 8.57257C0.840265 8.60388 0.921296 8.62 1.00313 8.62C1.08496 8.62 1.16599 8.60388 1.24159 8.57257C1.31719 8.54125 1.38589 8.49535 1.44375 8.43749L4.5 5.38124L7.55625 8.43749C7.61411 8.49535 7.68281 8.54125 7.75841 8.57257C7.83401 8.60388 7.91504 8.62 7.99688 8.62C8.07871 8.62 8.15974 8.60388 8.23534 8.57257C8.31094 8.54125 8.37964 8.49535 8.4375 8.43749C8.49536 8.37962 8.54126 8.31093 8.57258 8.23533C8.6039 8.15972 8.62001 8.07869 8.62001 7.99686C8.62001 7.91503 8.6039 7.834 8.57258 7.7584C8.54126 7.68279 8.49536 7.6141 8.4375 7.55624L5.38125 4.49999L8.4375 1.44374C8.675 1.20624 8.675 0.806237 8.4375 0.568737Z" fill="#EEEEEE"/>
</svg>
