<svg width="52" height="52" viewBox="0 0 52 52" fill="none" xmlns="http://www.w3.org/2000/svg">
<path opacity="0.1" fill-rule="evenodd" clip-rule="evenodd" d="M26 51.2026C39.8071 51.2026 51 40.0098 51 26.2026C51 12.3955 39.8071 1.20264 26 1.20264C12.1929 1.20264 1 12.3955 1 26.2026C1 40.0098 12.1929 51.2026 26 51.2026Z" stroke="#E0E3E7" stroke-width="1.5"/>
<path d="M28.276 19.8038H30.5737C30.7851 19.8038 30.9566 19.6422 30.9566 19.443V17.2778C30.9566 17.0787 30.7851 16.917 30.5737 16.917H28.276C25.9538 16.917 24.0636 18.6974 24.0636 20.8864V23.4124H21.3829C21.1716 23.4124 21 23.574 21 23.7732V25.9383C21 26.1375 21.1716 26.2992 21.3829 26.2992H24.0636V33.8771C24.0636 34.0763 24.2351 34.238 24.4465 34.238H26.7442C26.9556 34.238 27.1272 34.0763 27.1272 33.8771V26.2992H29.8078C29.9725 26.2992 30.1187 26.1996 30.1716 26.0524L30.9375 23.8873C30.9765 23.7776 30.9566 23.6563 30.8846 23.5618C30.8119 23.4679 30.697 23.4124 30.5737 23.4124H27.1272V20.8864C27.1272 20.2895 27.6426 19.8038 28.276 19.8038Z" fill="#E0E3E7"/>
</svg>
