<svg width="48" height="46" viewBox="0 0 48 46" fill="none" xmlns="http://www.w3.org/2000/svg">
<path d="M24 45.946C10.7452 45.946 0 35.8142 0 23.3163C0 10.8183 10.7452 0.686722 24 0.686722C37.2547 0.686722 48 10.8183 48 23.3163C48 35.8142 37.2547 45.946 24 45.946ZM24 14.2645C25.3255 14.2645 26.4 15.2777 26.4 16.5275C26.4 17.7772 25.3255 18.7904 24 18.7904C22.6745 18.7904 21.6 17.7772 21.6 16.5275C21.6 15.2777 22.6745 14.2645 24 14.2645ZM24 23.3163C27.9766 23.3163 31.2 20.277 31.2 16.5275C31.2 12.7781 27.9766 9.73857 24 9.73857C20.0234 9.73857 16.8 12.7781 16.8 16.5275C16.8 20.277 20.0234 23.3163 24 23.3163ZM24 30.1052C26.651 30.1052 28.8 32.1315 28.8 34.6311H33.6C33.6 29.632 29.3018 25.5793 24 25.5793C18.6981 25.5793 14.4 29.632 14.4 34.6311H19.2C19.2 32.1315 21.349 30.1052 24 30.1052Z" fill="#E0E3E7"/>
</svg>
