<svg width="52" height="52" viewBox="0 0 52 52" fill="none" xmlns="http://www.w3.org/2000/svg">
<path opacity="0.1" fill-rule="evenodd" clip-rule="evenodd" d="M26 51.2026C39.8071 51.2026 51 40.0098 51 26.2026C51 12.3955 39.8071 1.20264 26 1.20264C12.1929 1.20264 1 12.3955 1 26.2026C1 40.0098 12.1929 51.2026 26 51.2026Z" stroke="#E0E3E7" stroke-width="1.5"/>
<path d="M39.0073 19.1734C39.5714 21.2189 39.5714 25.602 39.5714 25.602C39.5714 25.602 39.5714 29.9364 39.0073 32.0306C38.7252 33.1994 37.832 34.076 36.7508 34.3682C34.7294 34.9039 26.7378 34.9039 26.7378 34.9039C26.7378 34.9039 18.6991 34.9039 16.6777 34.3682C15.5965 34.076 14.7033 33.1994 14.4212 32.0306C13.8571 29.9364 13.8571 25.602 13.8571 25.602C13.8571 25.602 13.8571 21.2189 14.4212 19.1734C14.7033 18.0046 15.5965 17.0793 16.6777 16.7871C18.6991 16.2026 26.7378 16.2026 26.7378 16.2026C26.7378 16.2026 34.7294 16.2026 36.7508 16.7871C37.832 17.0793 38.7252 18.0046 39.0073 19.1734ZM24.1052 29.5468L30.7806 25.602L24.1052 21.6572V29.5468Z" fill="#E0E3E7"/>
</svg>
